<?xml version="1.0" standalone="no"?>
<!DOCTYPE svg PUBLIC "-//W3C//DTD SVG 20010904//EN"
 "http://www.w3.org/TR/2001/REC-SVG-20010904/DTD/svg10.dtd">
<svg version="1.0" xmlns="http://www.w3.org/2000/svg"
 width="300.000000pt" height="300.000000pt" viewBox="0 0 300.000000 300.000000"
 preserveAspectRatio="xMidYMid meet">
<metadata>
Created by potrace 1.14, written by Peter Selinger 2001-2017
</metadata>
<g transform="translate(0.000000,300.000000) scale(0.100000,-0.100000)"
fill="#000000" stroke="none">
<path d="M2684 1992 c-5 -4 -24 -24 -42 -46 l-34 -39 38 -38 c21 -22 44 -39
51 -39 15 0 83 69 83 85 0 16 -85 84 -96 77z"/>
<path d="M989 1951 l-46 -16 14 -33 c13 -31 16 -118 9 -227 -14 -193 -17 -232
-21 -245 -2 -8 -6 -31 -9 -50 -3 -19 -10 -51 -16 -70 -5 -19 -10 -39 -10 -45
0 -9 54 -11 172 -6 l27 1 -26 63 c-37 88 -36 174 2 240 25 45 72 90 92 89 4 0
16 4 25 9 32 17 77 -16 104 -76 19 -40 25 -71 26 -127 1 -117 -31 -204 -111
-306 -50 -62 -35 -67 40 -13 49 35 108 100 100 110 -1 2 1 7 6 10 17 11 65
126 69 164 1 9 3 18 4 20 1 1 3 41 4 89 2 75 -1 94 -24 145 -45 98 -120 124
-217 75 -34 -18 -51 -30 -101 -73 -7 -6 -16 -8 -19 -5 -8 8 -8 93 0 136 32
173 33 160 -10 159 -21 -1 -59 -9 -84 -18z"/>
<path d="M1735 1822 c-112 -39 -219 -125 -251 -201 -37 -89 -21 -218 37 -292
74 -95 219 -94 361 3 105 70 154 139 165 227 8 73 -33 184 -87 229 -53 45
-151 60 -225 34z m50 -77 c93 -40 162 -233 115 -325 -26 -51 -44 -63 -98 -66
-60 -3 -125 28 -166 79 -25 31 -30 48 -32 97 -3 93 23 175 69 212 22 17 76 18
112 3z"/>
<path d="M2050 1823 c0 -5 5 -14 10 -19 20 -20 25 -81 16 -229 -9 -154 -19
-218 -41 -271 l-14 -34 95 0 c51 0 94 1 94 3 0 1 -9 25 -19 53 -30 79 -24 337
10 442 8 26 16 32 38 32 82 0 131 -123 78 -201 -16 -24 -37 -39 -72 -50 l-50
-17 160 -159 c172 -170 265 -240 387 -291 92 -38 220 -59 250 -41 7 5 11 9 8
10 -3 0 -18 3 -35 5 -41 7 -175 64 -175 75 0 5 -6 9 -14 9 -17 0 -152 104
-184 142 -13 15 -50 53 -84 85 -33 32 -80 85 -105 118 -41 55 -43 61 -27 70
10 5 38 29 61 53 80 80 54 160 -66 200 -41 14 -91 19 -188 21 -73 1 -133 -1
-133 -6z"/>
<path d="M24 1807 c64 -42 64 -40 52 -217 -3 -47 -8 -134 -11 -195 -3 -60 -7
-147 -10 -192 l-4 -83 27 -1 c42 -2 108 -6 222 -16 220 -17 280 -9 350 47 l25
20 -55 -6 c-30 -4 -66 -7 -80 -7 -26 0 -171 12 -199 18 -25 4 -134 18 -151 19
-17 1 -17 18 -7 196 6 102 16 294 20 390 l2 35 -100 2 c-81 2 -97 0 -81 -10z"/>
<path d="M490 1780 c-84 -25 -194 -95 -229 -146 -68 -99 -51 -268 34 -343 36
-31 101 -45 164 -37 48 7 157 62 202 104 22 19 39 30 40 26 11 -133 8 -130 89
-128 39 1 73 4 76 7 4 3 -4 20 -16 37 -17 24 -23 51 -29 128 -10 136 -5 259
14 311 8 24 15 45 15 47 0 2 -12 -1 -27 -7 -15 -6 -45 -12 -66 -14 -45 -5 -57
-11 -57 -31 0 -13 -2 -13 -16 1 -42 42 -133 63 -194 45z m63 -79 c86 -29 129
-143 98 -256 -12 -47 -59 -96 -93 -100 -13 -2 -27 -4 -33 -6 -25 -7 -95 24
-128 56 -60 59 -71 157 -27 250 33 69 91 86 183 56z"/>
<path d="M2612 1529 l2 -260 64 -30 c36 -16 68 -27 71 -23 3 3 5 118 3 255
l-2 250 26 24 c15 14 33 25 40 25 7 0 16 5 19 10 4 6 -35 10 -109 10 l-116 0
2 -261z"/>
<path d="M1397 1098 c-8 -24 -2 -71 11 -76 7 -2 10 2 6 12 -3 9 -1 16 5 16 6
0 11 -7 11 -15 0 -8 6 -15 14 -15 8 0 21 -3 30 -6 12 -4 16 0 16 15 0 12 5 21
10 21 6 0 10 -7 10 -16 0 -9 6 -14 13 -11 7 2 12 20 12 43 0 35 -3 39 -25 36
-33 -3 -42 -15 -42 -48 0 -26 -2 -26 -14 -10 -10 14 -10 24 -3 38 15 28 6 31
-20 6 l-23 -21 7 22 c7 22 -9 30 -18 9z m118 -18 c-3 -5 -12 -10 -18 -10 -7 0
-6 4 3 10 19 12 23 12 15 0z"/>
<path d="M1554 1100 c-12 -12 -6 -80 7 -80 5 0 9 8 9 17 0 15 1 15 13 -2 8
-10 26 -19 40 -21 21 -2 27 2 27 17 0 10 5 19 10 19 6 0 10 -7 10 -15 0 -16
19 -21 21 -5 6 63 2 75 -22 72 -29 -3 -49 -27 -44 -53 2 -10 0 -19 -5 -19 -16
0 -21 19 -10 39 8 16 7 22 -9 31 -25 13 -34 13 -47 0z m31 -19 c3 -5 1 -12 -5
-16 -5 -3 -10 1 -10 9 0 18 6 21 15 7z m90 -1 c-3 -5 -12 -10 -18 -10 -7 0 -6
4 3 10 19 12 23 12 15 0z"/>
<path d="M1709 1093 c0 -10 -2 -33 -3 -51 -3 -36 17 -40 22 -4 4 28 22 29 22
1 0 -12 5 -19 13 -16 16 5 15 79 -1 85 -7 2 -12 -3 -12 -12 0 -9 -7 -16 -15
-16 -9 0 -12 6 -9 15 4 8 1 15 -5 15 -6 0 -11 -8 -12 -17z"/>
<path d="M1790 1065 c0 -49 15 -62 22 -17 5 35 -1 62 -13 62 -5 0 -9 -20 -9
-45z"/>
<path d="M1874 1098 c-5 -7 -9 -26 -9 -43 0 -26 4 -30 31 -33 29 -3 32 0 36
28 4 29 3 31 -19 25 -13 -3 -23 -1 -23 5 0 5 3 9 8 8 4 -2 8 2 10 7 5 15 -24
18 -34 3z m31 -48 c3 -5 1 -10 -4 -10 -6 0 -11 5 -11 10 0 6 2 10 4 10 3 0 8
-4 11 -10z"/>
<path d="M1987 1096 c-19 -19 -11 -53 15 -67 14 -8 23 -8 31 0 8 8 7 11 -5 11
-17 0 -32 26 -22 41 3 5 10 6 16 3 6 -4 9 -1 6 6 -7 21 -24 23 -41 6z"/>
<path d="M2049 1110 c-7 -22 -5 -100 2 -100 5 0 10 5 10 10 1 6 2 15 3 20 2
14 21 13 21 -2 0 -6 6 -13 13 -15 8 -3 12 9 12 41 0 25 -4 46 -10 46 -5 0 -10
-7 -10 -15 0 -20 -10 -19 -26 3 -7 9 -14 15 -15 12z"/>
<path d="M2138 1088 c-11 -11 -17 -26 -14 -35 3 -8 6 -21 6 -29 0 -8 5 -14 10
-14 6 0 10 9 10 20 0 11 5 20 10 20 6 0 10 -7 10 -15 0 -10 10 -15 30 -15 22
0 30 5 30 17 0 14 3 13 16 -5 8 -12 20 -20 25 -16 6 4 5 12 -4 22 -13 15 -13
19 -1 30 11 10 14 10 14 -2 0 -21 28 -46 51 -46 22 0 27 38 7 59 -11 11 -10
12 2 6 10 -5 10 -2 -3 11 -15 16 -20 17 -38 5 -15 -9 -24 -10 -32 -2 -19 19
-57 13 -57 -9 0 -11 -5 -20 -10 -20 -6 0 -10 7 -8 16 4 24 -30 26 -54 2z m32
-8 c0 -5 -5 -10 -11 -10 -5 0 -7 5 -4 10 3 6 8 10 11 10 2 0 4 -4 4 -10z m73
-5 c-3 -9 -8 -14 -10 -11 -3 3 -2 9 2 15 9 16 15 13 8 -4z m79 -10 c6 -28 -6
-34 -16 -9 -5 14 0 34 8 34 2 0 6 -11 8 -25z m-112 -20 c0 -8 -4 -15 -10 -15
-5 0 -10 7 -10 15 0 8 5 15 10 15 6 0 10 -7 10 -15z"/>
<path d="M2368 1104 c-9 -15 -7 -84 3 -90 5 -3 10 0 10 5 1 6 2 16 3 23 0 6 7
13 14 16 8 2 12 -2 10 -13 -2 -10 3 -20 10 -22 8 -3 12 9 12 41 0 25 -4 46
-10 46 -5 0 -10 -7 -10 -15 0 -20 -10 -19 -25 2 -7 9 -14 12 -17 7z"/>
<path d="M2472 1103 c-18 -7 -34 -51 -27 -74 8 -25 25 -24 25 1 0 11 5 20 10
20 6 0 10 -7 10 -15 0 -8 5 -15 10 -15 6 0 10 20 10 45 0 45 -6 51 -38 38z
m18 -23 c0 -5 -5 -10 -11 -10 -5 0 -7 5 -4 10 3 6 8 10 11 10 2 0 4 -4 4 -10z"/>
</g>
</svg>
